<svg id="Layer_1" data-name="Layer 1" xmlns="http://www.w3.org/2000/svg" viewBox="0 0 56.87 56.55"><defs><style>.cls-1{fill:#fff;}</style></defs><rect class="cls-1" x="18.16" y="10.46" width="3.65" height="8.37" rx="1.83"/><rect class="cls-1" x="36.15" y="10.46" width="3.65" height="8.37" rx="1.83"/><path class="cls-1" d="M38.68,53a29.9,29.9,0,0,1-10,2,26.72,26.72,0,0,1-1-53.43c21,.68,29.53,17.27,26.78,31.79a3.45,3.45,0,0,1,1.06,1,4,4,0,0,1,.39.74,28.58,28.58,0,0,0,.81-6.18C56.21-8.46,2.7-10-.07,27.24A28.35,28.35,0,0,0,28,56.62a28.77,28.77,0,0,0,11.92-2.41A3.39,3.39,0,0,1,38.68,53Z" transform="translate(0.09 -0.07)"/><path class="cls-1" d="M50.21,44a36.75,36.75,0,0,0-4.32,6.58,28.22,28.22,0,0,0,8.62-11.19C53.06,40.88,51.57,42.43,50.21,44Z" transform="translate(0.09 -0.07)"/><path class="cls-1" d="M20.34,30.43l.47-.4a7.17,7.17,0,0,0-3.48,1.45,2.69,2.69,0,0,1,.52-.8,8.18,8.18,0,0,1,3.48-2.2c.4-.13.41-.13.37-.55a3.81,3.81,0,0,0-.6-1.77L21,26.05s0,0,0-.06a.53.53,0,0,1,.35.06,8.76,8.76,0,0,1,3.29,2.14,1.14,1.14,0,0,0,.46.28,6.45,6.45,0,0,1,2.27,1.31,1,1,0,0,1,.29.4.33.33,0,0,1-.33.48,1.27,1.27,0,0,1-.43-.09,11,11,0,0,0-3.6-.59,13.08,13.08,0,0,0-2.71.43A.44.44,0,0,1,20.34,30.43Z" transform="translate(0.09 -0.07)"/><path class="cls-1" d="M18.42,31.08a6.28,6.28,0,0,0-.6,1.12c-.1-.19,0-.34-.08-.48a1.26,1.26,0,0,0-.24,2,3.92,3.92,0,0,0,2.29.88c.13,0,.16-.08.17-.18,0-.34.07-.68.11-1,0-.12,0-.23-.17-.23s-.26,0-.23-.23.06-.31.29-.3h2.62c.19,0,.25.07.22.26s0,.42-.07.62-.22.17-.36.18-.17-.11-.15-.23-.06-.33-.29-.3h-.29c-.44,0-.44,0-.48.43,0,.25-.06.5-.07.75s-.08.25.08.27.35.09.47-.11c0,0,0-.1.07-.14a.17.17,0,0,1,.21-.06c.09,0,.1.1.09.17,0,.22-.05.45-.07.67s-.09.18-.21.18-.35,0-.52,0a.2.2,0,0,0-.24.21c0,.23,0,.45-.07.68s.05.18.18.18.23.05.21.21,0,.29-.24.29H19.53c-.11,0-.24,0-.21-.15s-.05-.35.18-.34.29-.14.3-.33,0-.35.06-.52,0-.28-.24-.32a5,5,0,0,1-2-.7,1.77,1.77,0,0,1-.93-1.29,1.64,1.64,0,0,1,.42-1.18A3.52,3.52,0,0,1,18.42,31.08Z" transform="translate(0.09 -0.07)"/><path class="cls-1" d="M28.48,34.06l.24-.12a2.08,2.08,0,0,1,.49-.19c.68-.15,1.1.19,1.07.88,0,.49-.09,1-.14,1.46,0,.19,0,.34.22.32s.16.06.13.17,0,.3-.16.31H28.91a.12.12,0,0,1-.13-.13c0-.12,0-.27.09-.33a.27.27,0,0,0,.2-.27c0-.47.09-.94.13-1.41,0-.18,0-.36-.24-.38s-.55.13-.57.31c-.06.51-.11,1-.16,1.51,0,.08,0,.17.07.2s.14.24.12.38-.17.13-.28.13h-1.2c-.13,0-.26,0-.25-.18s0-.32.23-.31.24-.1.25-.26l.18-1.64c0-.16,0-.24-.21-.23s-.2,0-.18-.16,0-.32.19-.32h1.18C28.5,33.79,28.44,34,28.48,34.06Z" transform="translate(0.09 -0.07)"/><path class="cls-1" d="M24.67,33.72a1.61,1.61,0,0,1,1.14.35,1.57,1.57,0,0,1,.09,2.2,2,2,0,0,1-2.47.44,1.39,1.39,0,0,1-.66-1.53A1.85,1.85,0,0,1,24.67,33.72Zm-.76,1.91c0,.14,0,.28,0,.41s.11.42.36.47a.49.49,0,0,0,.57-.26A2.28,2.28,0,0,0,25,34.46a.4.4,0,0,0-.58-.24.66.66,0,0,0-.37.41A2.85,2.85,0,0,0,23.91,35.63Z" transform="translate(0.09 -0.07)"/><path class="cls-1" d="M35.83,35.66l.67-1.21c0-.09.07-.17-.07-.17s-.15-.12-.14-.23,0-.25.17-.25h.87a.13.13,0,0,1,.14.17c0,.12,0,.31-.17.31s-.29.14-.37.3c-.61,1.25-1.22,2.49-1.82,3.74a.44.44,0,0,1-.52.31c-.17,0-.4.09-.49-.06s.12-.29.2-.43c.22-.4.45-.79.69-1.18a.48.48,0,0,0,0-.42c-.18-.66-.36-1.33-.53-2,0-.16-.1-.27-.29-.25s-.19,0-.17-.15,0-.32.17-.33h1.49c.12,0,.14.09.12.18s0,.28-.15.29-.19.09-.16.23C35.62,34.87,35.72,35.23,35.83,35.66Z" transform="translate(0.09 -0.07)"/><path class="cls-1" d="M39.07,33.73c.24,0,.49.14.75,0s.2,0,.18.18,0,.4-.08.6,0,.15-.14.16a.18.18,0,0,1-.21-.12.46.46,0,0,0-.4-.33.3.3,0,0,0-.33.15.25.25,0,0,0,.11.34c.22.16.44.31.65.48a.9.9,0,0,1-.09,1.54,1.49,1.49,0,0,1-1.33.14c-.1,0-.19-.08-.28,0s-.16.06-.24,0,0-.14,0-.21,0-.42.07-.63,0-.19.15-.21a.2.2,0,0,1,.23.16.57.57,0,0,0,.44.44.34.34,0,0,0,.4-.16c.09-.17,0-.28-.14-.37l-.55-.46a1,1,0,0,1,.19-1.62A1.3,1.3,0,0,1,39.07,33.73Z" transform="translate(0.09 -0.07)"/><path class="cls-1" d="M31.5,35.92c.05-.43.09-.9.15-1.37,0-.17,0-.29-.22-.27s-.23,0-.21-.16,0-.34.2-.33.37,0,.36-.31a.17.17,0,0,1,.11-.14l.82-.4c.13-.07.17,0,.16.13a4.57,4.57,0,0,1,0,.52c0,.16,0,.2.19.2h.39c.12,0,.22,0,.2.18s0,.3-.2.31h-.47c-.13,0-.19,0-.2.18,0,.48-.11,1-.15,1.43s.18.57.57.46c.09,0,.17-.07.21.06s.09.23,0,.31a1.47,1.47,0,0,1-1.35.13C31.58,36.69,31.5,36.34,31.5,35.92Z" transform="translate(0.09 -0.07)"/><path class="cls-1" d="M24.85,28.18c-.14,0-.18-.15-.25-.23a6.26,6.26,0,0,0-1.68-1.52.24.24,0,0,1-.13-.23,8,8,0,0,0,0-1.38c0-.06,0-.14,0-.16s.1.06.14.1a13,13,0,0,1,1.24,1.88,6.47,6.47,0,0,1,.59,1.28C24.81,28,24.82,28.08,24.85,28.18Z" transform="translate(0.09 -0.07)"/><path class="cls-1" d="M34.53,43.36a1.36,1.36,0,0,1,0-.17H28.68c-4.9,0-9.81,0-14.71,0-.54,0-.76-.16-.76-.74q0-9.57,0-19.16c0-.62.22-.76.8-.73,6.11.06,12.22.06,18.32,0,3.78.09,7.55-.17,11.32.05.44,0,.53.28.53.65,0,5,0,10,0,15a26.53,26.53,0,0,1,2.46-2.09V15.77c0-3-3.39-2.34-5.45-2.39a.72.72,0,0,0-.27.06V17a3,3,0,0,1-6,0V13.43l-12,0V17a3,3,0,0,1-6,0v-3.5a.65.65,0,0,0-.34-.09c-2.08.06-5.63-.64-5.74,2.32,0,4.12,0,8.23,0,12.36-.1,5,.1,10,0,15a2.36,2.36,0,0,0,2.58,2.62H34.88A3.69,3.69,0,0,1,34.53,43.36Z" transform="translate(0.09 -0.07)"/><path class="cls-1" d="M54.35,35.19a1.84,1.84,0,0,0-1.53-.81,2.37,2.37,0,0,0-1.21.37,28.92,28.92,0,0,0-8.49,6.86c-.38.45-.74.93-1.1,1.44a5.68,5.68,0,0,0-.63-.67,3.38,3.38,0,0,0-2.32-1,3.43,3.43,0,0,0-2,.64,2.26,2.26,0,0,0-.63,3.4A22.48,22.48,0,0,1,39,49.86l.83,2a2,2,0,0,0,1.69,1.36h.18a2,2,0,0,0,1.86-1.27c.16-.29.31-.59.46-.89l.33-.63a39.75,39.75,0,0,1,4.76-7.34c1.55-1.84,3.26-3.58,4.92-5.23A1.92,1.92,0,0,0,54.35,35.19Z" transform="translate(0.09 -0.07)"/></svg>